<?xml version="1.0" encoding="UTF-8"?>
<svg width="16px" height="16px" viewBox="0 0 16 16" version="1.1" xmlns="http://www.w3.org/2000/svg" xmlns:xlink="http://www.w3.org/1999/xlink">
    <title>Favicon</title>
    <g id="Website" stroke="none" stroke-width="1" fill="none" fill-rule="evenodd">
        <g id="Favicon" fill-rule="nonzero">
            <path d="M14.9714286,1.03793293 C14.0747253,0.140736668 12.8087912,0 11.3054945,0 L4.66813187,0 C3.19120879,0 1.92527473,0.140736668 1.02857143,1.03793293 C0.131868132,1.93512919 0,3.19296317 0,4.66190214 L0,11.3117097 C0,12.8158329 0.131868132,14.0648708 1.02857143,14.9620671 C1.92527473,15.8592633 3.19120879,16 4.68571429,16 L11.3054945,16 C12.8087912,16 14.0747253,15.8592633 14.9714286,14.9620671 C15.8681319,14.0648708 16,12.8158329 16,11.3117097 L16,4.68829027 C16,3.18416712 15.8681319,1.92633315 14.9714286,1.03793293 Z" id="Background" fill="#111D33"></path>
            <path d="M8.509,3.27 C6.13,3.27 4.297,4.973 4.297,7.989 C4.297,11.083 6.039,12.734 8.483,12.734 C9.874,12.734 10.849,12.188 11.512,11.512 L10.55,10.277 C10.043,10.68 9.497,11.083 8.6,11.083 C7.365,11.083 6.507,10.16 6.507,7.989 C6.507,5.779 7.417,4.856 8.561,4.856 C9.263,4.856 9.861,5.116 10.355,5.519 L11.395,4.258 C10.641,3.634 9.809,3.27 8.509,3.27 Z" id="C" fill="#FFE7CC"></path>
        </g>
    </g>
</svg>